<svg width="100" height="100" xmlns="http://www.w3.org/2000/svg">
 <g id="Layer_1">
  <title>Layer 1</title>
  <path d="m5.37245,11.77962c-0.13774,0 -0.17808,-0.0411 -0.27548,-0.14033c-0.0974,-0.09923 -0.09539,-0.30676 -0.27548,-0.56132c-0.1139,-0.161 -0.16158,-0.40032 -0.27548,-0.56132c-0.18009,-0.25456 -0.23135,-0.70527 -0.27548,-0.98231c-0.06977,-0.43803 -0.13774,-0.98231 -0.13774,-1.26297c0,-0.56132 0.22185,-1.00466 0.41322,-1.4033c0.21819,-0.45452 0.47527,-0.9052 0.82644,-1.26297c0.35117,-0.35777 0.78587,-0.75023 1.10192,-0.98231c0.24986,-0.18347 0.38894,-0.20857 0.6887,-0.28066c0.26811,-0.06448 0.67197,-0.06925 1.10192,-0.14033c0.27192,-0.04496 0.55096,0 0.96418,0c0.27548,0 0.55096,0 0.82644,0c0.27548,0 0.41322,0.14033 0.55096,0.14033c0.27548,0 0.45356,0.18143 0.55096,0.28066c0.0974,0.09923 0.31582,-0.09923 0.41322,0c0.0974,0.09923 0.08503,0.15101 0.13774,0.28066c0.07454,0.18335 0.33317,0.33944 0.55096,0.56132c0.21779,0.22188 0.45356,0.37989 0.55096,0.28066c0.0974,-0.09923 0.1669,-0.10021 0.55096,-0.42099c0.30128,-0.25164 1.05249,-0.77888 1.65288,-1.12264c0.64663,-0.37024 1.36032,-0.60947 2.0661,-0.84198c0.54037,-0.17802 0.95079,-0.31212 1.23966,-0.42099c0.53264,-0.20074 1.08922,-0.20997 1.65288,-0.28066c0.68354,-0.08573 1.23966,-0.14033 1.79062,-0.14033c0.55096,0 1.10192,0.14033 1.65288,0.28066c0.55096,0.14033 1.22151,0.32116 1.79062,0.56132c0.40241,0.16982 0.64813,0.32924 0.96418,0.56132c0.24986,0.18348 0.47092,0.33944 0.6887,0.56132c0.21779,0.22188 0.27548,0.42099 0.27548,0.56132c0,0.14033 0.04034,0.09923 0.13774,0c0.0974,-0.09923 0.96759,-0.41246 1.65288,-0.70165c0.96914,-0.40898 2.0447,-0.7784 2.89254,-0.98231c0.94791,-0.22798 1.7927,-0.22097 2.61706,-0.28066c0.97152,-0.07034 1.92836,-0.28066 2.89254,-0.28066c1.10192,0 2.48051,-0.05832 3.85671,0c1.65718,0.07023 3.44472,0.21604 5.09637,0.28066c1.79459,0.07022 3.4435,0.28066 4.54542,0.42099c1.10192,0.14033 1.55548,0.32176 1.65288,0.42099c0.0974,0.09923 0.27548,0.42099 0.41322,0.70165c0.13774,0.28066 0.17808,0.32176 0.27548,0.42099c0.0974,0.09923 0.00549,0.01067 0.27548,-0.14033c0.70405,-0.39376 1.36167,-0.74715 2.47932,-1.12264c0.95232,-0.31995 1.92836,-0.56132 2.89254,-0.70165c0.96418,-0.14033 2.20503,-0.19865 3.58124,-0.14033c1.65718,0.07023 3.17193,0.25587 4.95863,0.56132c1.51874,0.25964 2.7548,0.42099 3.99445,0.70165c1.23966,0.28066 2.3514,0.67588 3.44349,1.12264c0.97345,0.39823 1.63657,0.86868 2.0661,1.12264c0.26639,0.1575 0.34993,0.28817 0.41322,0.56132c0.07076,0.30539 0.17808,0.74275 0.27548,0.84198c0.0974,0.09923 0.13419,-0.15985 0.82644,-0.28066c0.95998,-0.16753 2.04565,-0.4203 3.44349,-0.56132c1.50777,-0.15211 2.61706,-0.14033 3.58123,-0.14033c0.82644,0 1.14227,0.0411 1.23966,0.14033c0.0974,0.09923 0.26412,0.28861 0.55095,0.70165c0.39777,0.57279 1.1307,1.52481 1.65288,2.38561c0.58382,0.96241 1.21127,1.97689 1.51514,2.66627c0.37852,0.85875 0.75046,1.51636 0.96417,2.10495c0.19703,0.54266 0.13774,0.98231 0.13774,1.4033c0,0.28066 -0.359,0.77725 -0.55095,1.12264c-0.27981,0.50349 -0.41322,0.84198 -0.6887,1.26297c-0.27548,0.42099 -0.75568,0.81725 -0.82644,1.12264c-0.03165,0.13658 0,0.42099 0,0.70165c0,0.14033 0.13774,0.42099 0.55096,0.84198c0.6887,0.70165 2.16917,1.58808 3.71897,2.8066c1.48317,1.16612 2.96353,2.1787 3.71898,3.08726c0.76587,0.92109 1.26,1.81635 1.51514,2.52594c0.14982,0.41669 0.20393,0.84742 0.13774,1.26297c-0.06977,0.43803 -0.3752,1.01357 -0.82644,1.54363c-0.63814,0.74962 -1.2328,1.54928 -1.79062,2.24528c-0.6804,0.84895 -1.29635,1.60033 -1.79062,2.24528c-0.35964,0.46927 -0.64635,0.86808 -0.82644,1.12264c-0.11389,0.16099 -0.41322,0.42099 -0.41322,0.56132c0,0.14033 -0.04072,0.28271 0,0.70165c0.06921,0.71207 0.41322,1.4033 0.96418,2.24528c0.55096,0.84198 0.96418,1.82429 1.3774,2.66627c0.55095,1.12264 1.10192,2.24528 1.51514,3.36792c0.41321,1.12264 0.69716,2.10376 0.82643,3.08726c0.1474,1.12137 0.25555,2.11231 0.13774,3.08726c-0.13878,1.14852 -0.58144,2.28998 -0.96417,3.08726c-0.43639,0.90904 -0.96418,1.68396 -1.23966,2.24528c-0.27548,0.56132 -0.49733,1.00466 -0.68869,1.4033c-0.21819,0.45452 -0.24383,0.70541 -0.27548,0.84198c-0.07076,0.30539 -0.19137,0.58368 0,0.98231c0.21819,0.45452 0.78634,1.19384 1.23966,1.96462c0.53916,0.91675 0.90477,1.93413 1.23966,2.94693c0.36261,1.09664 0.52851,2.24838 0.6887,3.36793c0.12086,0.84467 0.17061,1.83056 0,2.66627c-0.11564,0.56646 -0.45298,1.31169 -0.82643,1.96462c-0.44405,0.77635 -1.20916,1.43582 -1.92836,2.10495c-0.79437,0.73908 -1.66369,1.53495 -2.20383,2.24528c-0.42178,0.55467 -0.87759,1.0871 -1.23966,1.68396c-0.32384,0.53385 -0.41322,0.84198 -0.41322,1.26297c0,0.28066 0,0.56132 0.13774,1.12264c0.13774,0.56131 0.47499,1.09536 0.6887,1.68396c0.19703,0.54266 0.41322,1.12264 0.55096,1.68396c0.13774,0.56132 0.13774,1.12264 0.13774,1.54363c0,0.70165 -0.02621,1.24635 -0.27548,1.68397c-0.30918,0.54279 -0.65908,1.0142 -1.23966,1.54363c-0.65718,0.59927 -1.19909,0.89056 -1.51514,1.12264c-0.24986,0.18348 -0.41322,0.14033 -0.55096,0.14033c-0.13774,0 -0.41321,-0.14033 -0.82643,-0.14033c-0.41322,0 -0.5913,0.0411 -0.6887,0.14033c-0.0974,0.09923 -0.37384,0.4507 -0.6887,0.84198c-0.37049,0.46043 -1.10192,0.84198 -2.0661,1.54363c-0.96417,0.70165 -1.79907,1.09803 -2.61705,1.4033c-0.69649,0.25993 -1.36886,0.49091 -2.20384,0.56132c-0.82363,0.06945 -1.39214,0.12896 -1.92836,0c-0.59951,-0.14419 -0.93128,-0.47935 -1.3774,-0.70165c-0.39128,-0.19497 -0.84461,-0.38665 -1.3774,-0.70165c-0.42954,-0.25396 -0.82644,-0.42099 -0.96418,-0.42099c-0.13774,0 -0.13774,-0.14033 -0.27547,-0.14033c-0.41322,0 -1.09839,0.15513 -2.20384,0.42099c-1.23593,0.29725 -2.35543,0.47541 -3.4435,0.70165c-0.98251,0.20429 -2.05337,0.61953 -3.16801,0.84198c-0.95581,0.19076 -1.78207,0.21025 -2.61706,0.28066c-0.82362,0.06945 -1.92836,0 -2.89254,0c-0.82644,0 -1.62611,-0.20325 -2.20384,-0.42099c-0.53264,-0.20074 -0.88002,-0.3727 -1.23966,-0.84198c-0.49427,-0.64496 -0.78409,-1.28908 -0.96418,-1.54364c-0.2278,-0.32199 -0.36051,-0.43167 -0.41322,-0.56131c-0.07454,-0.18335 -0.27548,-0.14033 -0.82644,-0.14033c-0.6887,0 -1.65084,0.15569 -2.61705,0.28066c-1.23736,0.16004 -2.60628,0.49008 -4.13219,0.70165c-1.50749,0.20901 -2.88681,0.21039 -4.13219,0.28066c-1.37529,0.0776 -2.62207,0.11342 -3.85671,0c-1.53376,-0.1409 -3.18028,-0.36447 -4.54542,-0.70165c-0.97453,-0.2407 -1.84186,-0.61535 -2.34158,-0.98231c-0.6321,-0.46416 -0.96418,-1.26297 -1.23966,-1.68396c-0.27548,-0.42099 -0.23325,-0.91793 -0.41322,-0.84198c-0.12726,0.0537 -0.10615,0.31705 -0.41322,0.56132c-0.63305,0.50357 -1.77839,1.00795 -2.89254,1.54363c-1.22683,0.58986 -2.06842,0.82843 -2.89254,0.98231c-0.69083,0.129 -1.52581,0.2752 -2.34158,0.14033c-0.85989,-0.14217 -1.6947,-0.47328 -2.61706,-0.98231c-0.87335,-0.48199 -1.73091,-0.86085 -2.20384,-1.26297c-0.52875,-0.44958 -0.92181,-0.89965 -1.3774,-1.54364c-0.36017,-0.50911 -0.75667,-0.96527 -0.82644,-1.4033c-0.04413,-0.27703 0,-0.70165 0,-1.12264c0,-0.42099 0.17006,-0.72302 0.27548,-0.98231c0.07454,-0.18335 0.37288,-0.09923 0.27548,0c-0.29219,0.29768 -1.23817,0.29674 -2.61706,0.42099c-1.78892,0.1612 -3.16802,0.28066 -4.13219,0.28066c-0.6887,0 -1.38845,-0.04361 -1.79062,-0.14033c-0.29976,-0.07209 -0.41322,-0.28066 -0.55096,-0.42099c-0.27548,-0.28066 -0.41322,-0.56132 -0.55096,-0.98231c-0.13774,-0.42098 -0.13774,-0.84198 -0.13774,-1.4033c0,-0.42099 0.27548,-0.84198 0.55096,-1.12264c0.27548,-0.28066 0.31582,-0.32176 0.41322,-0.42099c0.0974,-0.09923 0.02715,-0.28203 0,-0.56132c-0.06921,-0.71207 -0.52258,-1.27524 -0.82644,-1.96462c-0.37852,-0.85875 -0.7234,-1.52686 -1.10192,-2.38561c-0.30386,-0.68938 -0.69832,-1.68238 -0.82644,-2.52594c-0.14894,-0.98061 -0.27548,-1.82429 -0.27548,-2.66627c0,-0.84198 0.18744,-1.85449 0.55096,-2.8066c0.22331,-0.58489 0.55096,-1.12264 0.96418,-1.54363c0.27548,-0.28066 0.55096,-0.42099 0.82644,-0.56132c0.27548,-0.14033 0.31582,-0.32176 0.41322,-0.42099c0.0974,-0.09923 0.18318,-0.28257 0.13774,-0.84198c-0.06911,-0.85069 -0.69874,-1.9583 -1.3774,-3.08727c-0.83893,-1.39559 -1.57109,-2.4955 -2.0661,-3.50825c-0.4676,-0.95667 -1.02599,-1.93996 -1.3774,-2.94693c-0.33592,-0.96259 -0.41322,-1.68396 -0.41322,-2.24528c0,-0.42099 0.02621,-0.82536 0.27548,-1.26297c0.30918,-0.5428 0.6887,-1.12264 0.96418,-1.54363c0.27548,-0.42099 0.67735,-0.61561 0.82644,-0.98231c0.05271,-0.12965 0.13774,-0.42099 0.27548,-0.70165c0.13774,-0.28066 0.13774,-0.70165 0.13774,-1.12264c0,-0.56132 -0.09521,-1.27305 -0.27548,-1.96462c-0.22359,-0.85779 -0.53461,-1.68749 -0.6887,-2.38561c-0.24919,-1.129 -0.55096,-2.10495 -0.6887,-3.08726c-0.13774,-0.98231 -0.13774,-1.96462 -0.13774,-2.8066c0,-0.98231 0.25132,-1.97323 0.55096,-2.8066c0.25513,-0.70959 0.73638,-1.36197 0.96418,-1.68396c0.18009,-0.25456 0.28596,-0.50762 0.41322,-0.56132c0.17997,-0.07594 0.13774,-0.28066 0.13774,-0.42099c0,-0.28066 -0.1096,-0.9951 -0.55096,-1.96462c-0.51835,-1.13864 -1.02603,-2.08136 -1.51514,-3.50825c-0.47412,-1.38317 -1.02939,-2.78836 -1.3774,-4.2099c-0.33993,-1.38855 -0.41322,-2.52594 -0.41322,-3.50825c0,-0.98231 0.06797,-1.52659 0.13774,-1.96462c0.06619,-0.41555 0.29535,-0.69241 0.41322,-0.98231c0.16669,-0.40998 0.41322,-0.70165 0.55096,-0.98231c0.13774,-0.28066 0.22277,-0.43167 0.27548,-0.56132c0.07454,-0.18335 0.22277,-0.29134 0.27548,-0.42099c0.07454,-0.18335 0.27548,-0.14033 0.27548,-0.28066c0,-0.14033 0.07155,-0.2861 0.13774,-0.70165c0.06977,-0.43803 0.18054,-0.99357 0.27548,-1.4033c0.07076,-0.30539 0.13774,-0.56132 0.27548,-0.84198c0.13774,-0.28066 0.09551,-0.48537 0.27548,-0.56132c0.12726,-0.0537 0.23325,-0.20471 0.41322,-0.28066c0.12726,-0.0537 0.41322,-0.14033 0.6887,-0.28066l0.13774,-0.14033l0.13774,0" id="svg_1" stroke="#000" fill="none"/>
 </g>
</svg>